<svg xmlns="http://www.w3.org/2000/svg" viewBox="0 0 160 160" role="img" aria-label="Owl pixel art sprite" shape-rendering="crispEdges"><polygon points="80,126 132,146 80,160 28,146" fill="#6b9a65" stroke="#493d43" stroke-width="3"/><polygon points="28,146 80,160 80,153 35,144" fill="#b88762"/><polygon points="80,160 132,146 125,143 80,153" fill="#a9c98a"/><rect x="48" y="53" width="63" height="66" fill="#a77c59" stroke="#493d43" stroke-width="4"/><polygon points="48,62 48,37 68,54" fill="#a77c59" stroke="#493d43" stroke-width="4"/><polygon points="91,54 111,37 111,62" fill="#a77c59" stroke="#493d43" stroke-width="4"/><rect x="58" y="67" width="20" height="20" fill="#f5e6b8" stroke="#493d43" stroke-width="3"/><rect x="83" y="67" width="20" height="20" fill="#f5e6b8" stroke="#493d43" stroke-width="3"/><rect x="66" y="75" width="7" height="7" fill="#493d43"/><rect x="91" y="75" width="7" height="7" fill="#493d43"/><polygon points="78,85 88,85 83,95" fill="#e5ad58" stroke="#493d43" stroke-width="2"/><rect x="62" y="118" width="11" height="8" fill="#e5ad58"/><rect x="88" y="118" width="11" height="8" fill="#e5ad58"/></svg>