<svg xmlns="http://www.w3.org/2000/svg" viewBox="0 0 160 160" role="img" aria-label="Bluebells pixel art sprite" shape-rendering="crispEdges"><polygon points="80,126 132,146 80,160 28,146" fill="#6b9a65" stroke="#493d43" stroke-width="3"/><polygon points="28,146 80,160 80,153 35,144" fill="#b88762"/><polygon points="80,160 132,146 125,143 80,153" fill="#a9c98a"/><path d="M80 132 L80 45 L86 45 L86 132 Z" fill="#4f8054" stroke="#493d43" stroke-width="3"/><path d="M83 55 L65 55 L65 63 L72 63 L72 72 L88 72 L88 80 L72 80 L72 89 L88 89 L88 98 L72 98 L72 107 L88 107 L88 116 L80 116 Z" fill="#8e91df" stroke="#493d43" stroke-width="3"/></svg>